HIERARCHY
ROOT Spine
{
    OFFSET 0.0 0.0 -0.0
    CHANNELS 6 Xposition Yposition Zposition Zrotation Xrotation Yrotation
    JOINT ShoulderCenter
    {
        OFFSET 0.0 22.589458465576172 0.0
        CHANNELS 3 Zrotation Xrotation Yrotation
        JOINT LeftShoulder
        {
            OFFSET 18.250019073486328 0.0 0.0
            CHANNELS 3 Zrotation Xrotation Yrotation
            JOINT LeftElbow
            {
                OFFSET 21.977169036865234 0.0 0.0
                CHANNELS 3 Zrotation Xrotation Yrotation
                JOINT LeftHand
                {
                    OFFSET 27.386375427246094 0.0 0.0
                    CHANNELS 3 Zrotation Xrotation Yrotation
                    End Site
                    {
                        OFFSET 10.954549789428711 0.0 0.0
                    }
                }
            }
        }
        JOINT RightShoulder
        {
            OFFSET -18.250019073486328 0.0 0.0
            CHANNELS 3 Zrotation Xrotation Yrotation
            JOINT RightElbow
            {
                OFFSET -21.977169036865234 0.0 0.0
                CHANNELS 3 Zrotation Xrotation Yrotation
                JOINT RightHand
                {
                    OFFSET -27.386375427246094 0.0 0.0
                    CHANNELS 3 Zrotation Xrotation Yrotation
                    End Site
                    {
                        OFFSET -10.954549789428711 0.0 0.0
                    }
                }
            }
        }
        End Site
        {
            OFFSET 0.0 9.035784721374512 0.0
        }
    }
    JOINT LeftHip
    {
        OFFSET 21.856438522326044 -21.856438522326044 0.0
        CHANNELS 3 Zrotation Xrotation Yrotation
        JOINT LeftKnee
        {
            OFFSET 0.0 -35.415802001953125 0.0
            CHANNELS 3 Zrotation Xrotation Yrotation
            JOINT LeftFoot
            {
                OFFSET 0.0 -44.619407653808594 0.0
                CHANNELS 3 Zrotation Xrotation Yrotation
                End Site
                {
                    OFFSET 0.0 0.0 17.847763061523438
                }
            }
        }
    }
    JOINT RightHip
    {
        OFFSET -21.856438522326044 -21.856438522326044 0.0
        CHANNELS 3 Zrotation Xrotation Yrotation
        JOINT RightKnee
        {
            OFFSET 0.0 -35.415802001953125 0.0
            CHANNELS 3 Zrotation Xrotation Yrotation
            JOINT RightFoot
            {
                OFFSET 0.0 -44.619407653808594 0.0
                CHANNELS 3 Zrotation Xrotation Yrotation
                End Site
                {
                    OFFSET 0.0 0.0 17.847763061523438
                }
            }
        }
    }
}
MOTION
Frames: 10
Frame Time: 0.03333333333333333
-29.379541397094727 32.11125183105469 -348.60321044921875 4.501071496339747 15.430938701947312 -140.71330130165165 -6.316552323759386e-07 -4.749799113343119e-07 -0.04975766265028234 -66.14863731938024 -53.092998119443976 -4.782815959443623 -7.068072738808986e-07 -1.4540517725346541e-06 81.68530178040258 0.0 -6.3611093629270335e-15 0.0 82.64253063406281 -49.709190307767635 6.102679691662684 3.174253322728537e-06 4.6479744305275223e-07 -68.4519629009472 0.0 0.0 -3.1805546814635176e-15 14.998812526435286 -6.143715973766076 75.41439710281814 2.3026594101064113 -7.885225835809828 34.55660902241709 0.0 0.0 8.5104685812598e-16 0.27609812903614517 -2.697544388497769 -49.41776311739013 3.560799212132184 3.4568231302689667 11.704988086262917 9.93923337957349e-17 -1.2931366107568824e-34 -1.4908850069360235e-16
-29.398149490356445 32.0519905090332 -348.5975036621094 4.4687007360156885 15.362169180647527 -141.08014433376488 1.891821977814514e-07 1.224669544293406e-06 0.10303400908883349 -66.57756436594099 -53.810350505854366 -4.63814613738462 -1.116580833290142e-06 3.573814249272592e-06 75.75105580291654 1.7655625192200634e-31 6.361109362927035e-15 -3.1805546814635176e-15 82.66965279808797 -48.1982846528899 5.832785396984123 4.41259133224093e-06 1.6217863195982917e-06 -65.87444040583776 -4.770832022195275e-15 -3.1805546814635168e-15 -1.5902773407317584e-15 14.841155378642032 -6.198135935542733 75.50407410921225 2.606317917147091 -8.100237106316303 35.75094724806266 0.0 0.0 8.075627120903461e-17 0.05545168429479657 -2.859804597822687 -51.22850225274948 3.5074005944280464 3.6853558824030537 12.520277821453927 -9.939233379573489e-17 3.1805546814635164e-15 -4.969616689786744e-17
-29.415958404541016 32.027488708496094 -348.5791015625 4.588146857961604 15.299262936729365 -141.93482338510006 8.03510720369415e-07 -9.77689849284538e-07 0.828760997403896 -66.54894739211348 -54.07957949291458 -3.5307898596354526 1.2655424433443563e-06 6.078869241446399e-07 71.98899783047476 0.0 0.0 0.0 82.65217163017124 -48.77824018643645 5.714322996764796 8.657439356522175e-07 1.1355578138511183e-06 -64.25634631069718 7.951386703658792e-15 4.770832022195275e-15 3.1805546814635164e-15 14.975692670461074 -6.17483095998388 77.04087778058705 2.5754172881168103 -8.243511147653015 35.9906161181459 -6.638101268551996e-33 -7.951386703658792e-16 -9.566512127839484e-16 -0.15734052324427777 -3.286012167895336 -53.92717706473994 3.3116033548917354 3.9190834592995 13.223245730062214 -4.969616689786745e-17 8.620910738379216e-35 -1.987846675914698e-16
-29.296852111816406 31.89653968811035 -348.65728759765625 4.810520286065025 15.154472368964983 -142.02487619148258 -4.190032652757764e-08 -1.5938709456095421e-06 0.818297655186316 -67.29031750504991 -54.90302606039766 -3.2251707580406244 7.265344599065444e-07 -6.80181383229045e-07 65.64161269388913 2.2069531490250793e-31 -7.951386703658792e-15 3.1805546814635168e-15 81.4214940293907 -52.33746577431039 1.4619452709625074 -1.9421357811517795e-06 2.7572851344747615e-06 -56.842778019420685 -2.3854160110976376e-15 3.1805546814635168e-15 3.1805546814635168e-15 15.541135438843073 -6.246812588909893 80.60218200549036 1.0081146510384762 -7.456495283912785 29.906269213365533 -3.1805546814635168e-15 -7.951386703658792e-16 -1.441188840038156e-15 0.2626726232554859 -3.8943950464085235 -53.72574484848297 2.8665898787551423 3.8581492055376154 12.698131669420935 -2.4848083448933725e-17 0.0 0.0
-29.217121124267578 31.780698776245117 -348.57049560546875 4.992121994331909 14.897111668129597 -142.94969923900115 -7.585409586410456e-07 4.155933993518303e-08 1.3097402836790035 -68.94561511484478 -54.247454282660904 -1.6656738404075144 2.2553978737353426e-06 2.518057409216627e-06 52.25057745699753 -3.1805546814635168e-15 1.5902773407317584e-15 3.1805546814635168e-15 77.51242583083823 -56.013373277672464 -8.943170856359218 -7.519612567797769e-08 -1.754908863866202e-06 -42.7660437805443 3.578124016646456e-15 6.207055731633035e-32 1.9878466759146976e-15 15.19447665723922 -7.026690557996619 80.07643985636189 2.261882305128574 -8.158702094381056 32.37115215415596 0.0 0.0 -5.963540027744096e-16 0.3857473577820338 -4.967291968723363 -55.24007138823551 1.8372980349483647 4.805137033265988 15.313030929847356 4.969616689786745e-17 6.465683053784412e-35 1.4908850069360235e-16
-29.061931610107422 31.730831146240234 -348.6051940917969 5.1290463112436075 14.672473484077832 -142.96381583716837 -2.352536996330531e-07 2.015647676022982e-07 1.2455230873919552 -69.16302323500703 -55.08854936173747 -0.24247153486015063 -1.4469354574300886e-07 3.628597282185951e-06 44.85527706327334 0.0 1.5902773407317582e-15 0.0 78.96041179073676 -52.87801841867185 -7.6061351837830244 -2.622122803978595e-06 1.2758675819346956e-07 -36.80435760345736 -4.8702243559910086e-15 -9.293341775972795e-32 2.1866313435061676e-15 15.267991511658334 -7.570937966343383 80.80470591658357 2.346910178289055 -8.192495772739079 31.695414820215216 -3.1805546814635168e-15 -1.6207312188152926e-32 5.839299610499425e-16 0.55156178024003 -5.4972615129176825 -55.50732590795181 1.539555308397483 3.782948991561271 11.989982797257083 0.0 0.0 -4.9696166897867443e-17
-28.947189331054688 31.673707962036133 -348.6940002441406 5.141968462335185 14.394517729810106 -142.88691360179362 -1.5618949358567356e-07 3.339322754389242e-07 1.2387911979013628 -69.97358421018617 -51.232825602002144 0.694059525760915 3.20050744488049e-06 9.386435848461869e-07 36.17787978113301 0.0 -6.3611093629270335e-15 0.0 78.13523799728287 -55.28723826476449 -7.304337128998314 3.8016057009564714e-06 5.298112707369279e-06 -32.38658836744008 -1.888454342118963e-15 3.975693351829396e-16 -1.1927080055488188e-15 15.16476031769271 -7.902419672176159 81.01166295032493 2.091840732133341 -7.8829813846535455 29.922485952429064 0.0 0.0 1.6027013824562253e-15 0.34191597832548687 -5.776785231371098 -56.372563901682696 1.7070663359475882 3.6961902770991695 11.609091513897576 -2.981770013872047e-16 -5.17254644302753e-34 1.987846675914698e-16
-28.207578659057617 31.733829498291016 -348.7839050292969 6.752595559225975 14.448954087899095 -144.2004995823877 -3.5860715933168013e-07 3.4175369944062243e-07 2.5390456279033846 -69.52151586828563 -54.20849069594549 2.611232576729175 -6.128177392075629e-06 7.16952326278054e-06 24.570648250848944 0.0 -3.1805546814635168e-15 0.0 80.12793191559992 -56.58869797660427 -5.786299044978284 -3.020093961052682e-06 -1.0527284795819184e-06 -29.076904650004867 -8.150171371250262e-15 -3.1805546814635168e-15 -1.5902773407317588e-15 19.438014845485572 -10.332446045443762 99.2574638532982 2.408179835397067 -6.443442209773015 20.69960467496045 0.0 0.0 6.957463365701443e-16 4.961680019967868 -8.84799425255455 -48.895265598911166 -1.6521973886663723 2.5730188755612713 6.69018571507625 9.939233379573489e-17 1.034509288605506e-33 1.1927080055488186e-15
-27.755510330200195 31.814659118652344 -348.9538879394531 7.06046448957303 14.440199442441422 -144.00740270440474 -1.1016036965788024e-07 9.580690815055429e-07 2.496157010932109 -69.75487245019609 -54.53217668582411 1.9775257993712143 9.511542952027381e-07 2.937329711498788e-07 23.78263200621128 0.0 0.0 0.0 81.2820962281286 -53.91650081976704 -3.2027030989527483 3.510472435857302e-07 2.4508594634381597e-06 -30.74996798614759 9.93923337957349e-17 -3.975693351829396e-16 3.4483642953516864e-34 18.940415499417952 -9.763504921856798 95.93805575934154 1.062845056956056 -7.319150020382947 22.996286976118476 2.034534934257495e-32 -7.951386703658791e-16 2.9320738469741793e-15 5.104125116292444 -8.997545682576906 -49.581064422541374 -1.0875116133885032 2.949777649067329 7.670239997403891 -4.969616689786745e-16 -2.155227684594804e-34 4.969616689786745e-17
-27.590539932250977 31.808740615844727 -349.014892578125 7.28855170580225 14.48884717258532 -144.07283910647618 2.122442879269599e-07 -9.552544746975757e-07 2.5972439027661713 -70.21033059378968 -52.15147639096948 0.9059311527973979 -1.1303221507622414e-06 -4.944978427845943e-06 23.544621397063747 0.0 0.0 6.3611093629270335e-15 80.5035783331179 -54.30829364479002 -2.78969613304359 -6.295102640523982e-06 1.4297955617881687e-07 -31.456179753121987 -9.442271710594815e-15 -1.1927080055488192e-15 4.373262687012335e-15 19.47261165295074 -9.600053251555952 97.37127426575722 0.49983585769937033 -6.947030277322584 21.63212704087743 0.0 0.0 1.2175560889977523e-15 5.430886867882314 -9.107808048668295 -49.19978359437404 -0.8250547344192921 2.850930174189164 7.307179980530695 9.939233379573489e-17 3.4483642953516864e-34 3.9756933518293955e-16
